<svg xmlns="http://www.w3.org/2000/svg" viewBox="0 0 1120 360" width="1120" height="360"><defs>
    <style>
      @import url('https://fonts.googleapis.com/css2?family=Montserrat:wght@800;900&amp;display=swap');
    </style>
  </defs><g transform="translate(0,260) scale(0.1,-0.1)" fill="#0D47A1" stroke="none">
    <path d="M7568 2208 c-10 -7 -21 -24 -26 -38 -5 -14 -67 -316 -138 -672 -116
-584 -127 -649 -115 -672 19 -34 69 -49 153 -44 64 3 73 7 98 35 15 17 29 36
32 44 3 9 19 2 52 -24 142 -108 355 -114 556 -16 67 33 101 59 165 123 121
123 178 247 191 421 19 245 -119 447 -338 495 -87 20 -239 9 -315 -22 -36 -15
-63 -21 -63 -15 0 6 14 84 32 174 l32 162 -20 28 c-21 28 -22 28 -150 31 -93
2 -134 -1 -146 -10z m497 -667 c77 -36 115 -95 115 -180 0 -148 -135 -291
-275 -291 -77 0 -119 16 -158 60 -59 65 -70 153 -30 248 58 140 227 219 348
163z"></path>
    <path d="M3856 2179 c-39 -5 -106 -22 -151 -37 -218 -75 -380 -217 -479 -417
-67 -135 -80 -194 -80 -365 0 -126 3 -154 23 -210 65 -185 206 -319 391 -374
133 -40 346 -28 496 29 176 66 330 207 418 382 39 78 33 123 -21 151 -23 13
-239 17 -268 6 -9 -4 -33 -32 -55 -63 -50 -75 -99 -117 -179 -154 -55 -26 -78
-31 -146 -31 -68 -1 -88 3 -137 27 -102 50 -148 132 -148 263 0 176 103 345
255 419 96 47 191 52 287 16 45 -17 104 -78 127 -131 33 -76 44 -80 201 -80
123 0 138 2 158 20 30 29 36 61 22 122 -52 216 -232 383 -457 423 -87 16 -155
17 -257 4z"></path>
    <path d="M7012 2080 c-54 -33 -74 -75 -69 -149 3 -60 6 -66 44 -102 48 -45 97
-57 156 -39 75 22 127 108 112 183 -9 41 -48 93 -85 112 -42 21 -118 19 -158
-5z"></path>
    <path d="M9183 1870 c-302 -31 -525 -254 -564 -561 -28 -226 71 -424 255 -510
83 -39 163 -53 266 -45 162 12 293 65 403 166 105 97 126 143 86 194 -20 26
-22 26 -149 26 -128 0 -130 0 -162 -29 -50 -43 -95 -63 -158 -68 -119 -11
-202 47 -212 147 l-3 35 382 5 c426 6 406 2 423 76 13 52 12 139 0 204 -15 81
-53 154 -111 215 -111 118 -259 165 -456 145z m158 -301 c39 -19 73 -64 84
-111 l7 -28 -221 0 -222 0 11 21 c7 11 27 38 46 59 76 83 198 108 295 59z"></path>
    <path d="M5091 1854 c-226 -61 -405 -250 -457 -482 -22 -100 -15 -255 15 -333
103 -269 421 -367 707 -219 75 39 84 40 84 9 0 -39 26 -49 133 -49 56 0 108 4
116 9 14 9 201 916 201 974 0 16 -10 38 -25 52 -22 23 -32 25 -115 25 -87 0
-93 -2 -119 -27 -15 -16 -32 -37 -38 -47 -10 -19 -12 -19 -34 -3 -72 52 -119
79 -163 92 -64 19 -233 18 -305 -1z m240 -306 c112 -37 157 -151 113 -281 -21
-62 -96 -144 -159 -173 -58 -27 -147 -32 -198 -10 -78 32 -125 132 -107 228
33 171 204 286 351 236z"></path>
    <path d="M6635 1843 c-61 -8 -132 -33 -187 -67 -32 -19 -59 -31 -62 -28 -2 4
-6 20 -10 37 -4 16 -12 36 -18 42 -15 18 -212 18 -226 1 -5 -7 -54 -231 -107
-498 -53 -267 -98 -492 -101 -501 -3 -9 3 -24 11 -33 14 -13 42 -16 165 -16
144 0 150 1 163 23 8 12 35 130 61 262 57 289 70 340 102 383 39 50 77 65 187
72 126 8 130 12 158 152 21 101 21 109 5 133 -26 40 -59 49 -141 38z"></path>
    <path d="M6902 1720 c-26 -25 -15 20 -112 -464 -69 -344 -78 -402 -67 -425 19
-40 52 -51 160 -51 106 0 161 15 171 47 12 37 166 818 166 841 0 12 -11 34
-25 47 -23 24 -30 25 -148 25 -110 0 -126 -2 -145 -20z"></path>
    <path d="M2685 1189 c-161 -114 -274 -164 -449 -200 -172 -36 -301 -31 -616
26 -263 47 -266 47 -435 42 -191 -6 -291 -27 -432 -92 -149 -69 -224 -130
-493 -399 -140 -141 -252 -256 -248 -256 3 0 125 64 270 141 448 242 530 275
733 299 131 16 250 7 460 -35 206 -41 337 -51 465 -36 145 18 244 47 365 106
203 99 355 239 474 438 13 20 19 37 14 37 -4 -1 -53 -33 -108 -71z"></path>
    <path d="M9420 565 c-104 -29 -191 -109 -225 -206 -19 -52 -19 -169 -2 -212
40 -94 115 -137 239 -137 70 0 92 4 143 28 91 44 149 119 173 230 l10 42 -149
0 -148 0 -10 -37 c-6 -21 -11 -41 -11 -45 0 -5 29 -8 65 -8 36 0 65 -3 65 -6
0 -20 -25 -44 -60 -58 -50 -20 -81 -20 -126 -1 -97 40 -73 210 39 266 61 32
122 22 163 -25 30 -35 33 -36 103 -36 67 0 71 1 71 23 -1 62 -65 143 -138 174
-51 21 -140 25 -202 8z"></path>
    <path d="M8286 543 c-3 -10 -26 -124 -51 -253 -25 -129 -48 -243 -51 -252 -5
-17 8 -18 169 -18 l175 0 7 46 c3 26 9 53 12 60 4 11 -14 14 -91 14 -86 0 -96
2 -96 18 0 10 17 105 39 210 l38 192 -73 0 c-61 0 -73 -3 -78 -17z"></path>
    <path d="M8676 543 c-5 -19 -106 -511 -106 -519 0 -3 32 -4 72 -2 l72 3 18 90
c36 183 40 197 48 189 4 -5 40 -71 80 -147 l72 -138 61 3 61 3 53 260 c28 143
52 264 53 268 0 4 -32 7 -72 5 l-72 -3 -18 -90 c-10 -49 -23 -115 -29 -145
l-11 -55 -74 148 -74 147 -64 0 c-53 0 -66 -3 -70 -17z"></path>
  </g><g transform="translate(0,260) scale(0.1,-0.1)" fill="#1D89E4" stroke="none">
    <path d="M1626 2540 c-224 -125 -432 -284 -611 -464 -228 -229 -359 -442 -427
-695 -15 -56 -22 -119 -25 -238 -3 -90 -2 -163 3 -163 4 0 47 20 95 45 193
100 386 141 621 133 82 -3 147 -3 146 1 -97 184 -127 285 -135 456 -14 312
111 625 362 902 36 40 65 73 63 73 -2 0 -43 -22 -92 -50z"></path>
    <path d="M1760 2434 c-99 -121 -173 -253 -220 -392 -95 -284 -74 -586 60 -851
22 -44 47 -82 57 -85 43 -12 205 -36 289 -42 53 -4 132 -2 192 6 l102 12 0 72
c-1 201 -86 422 -240 621 -88 114 -134 196 -170 304 -39 116 -49 242 -28 344
8 37 12 67 9 67 -3 -1 -26 -26 -51 -56z"></path>
    <path d="M972 649 c-63 -10 -234 -61 -261 -78 -11 -7 -8 -20 19 -68 74 -131
181 -274 312 -417 l64 -69 69 60 c136 117 266 298 320 448 15 41 26 78 23 80
-2 3 -49 14 -104 26 -114 24 -342 33 -442 18z"></path>
    <path d="M2020 594 c-36 -7 -118 -14 -182 -15 -102 -1 -118 -4 -118 -18 -1
-34 -59 -162 -104 -230 -55 -82 -167 -197 -254 -261 -34 -24 -60 -45 -59 -47
2 -1 32 4 67 12 300 63 559 251 719 523 35 59 37 58 -69 36z"></path>
  </g><text x="1100" y="340" font-family="'Montserrat', sans-serif" font-weight="900" font-size="85" fill="#1565C0" text-anchor="end" letter-spacing="1">¡Conecta!</text></svg>