<?xml version="1.0" encoding="UTF-8"?>
<svg id="Capa_2" data-name="Capa 2" xmlns="http://www.w3.org/2000/svg" viewBox="0 0 975.28 258.5">
  <defs>
    <style>
      .cls-1 {
        fill: #47D0C8;
      }

      .cls-2 {
        fill: #008179;
      }

      .cls-3 {
        fill: #00BFB3;
      }
    </style>
  </defs>
  <g id="Capa_1-2" data-name="Capa 1">
    <g id="Capa_1-2" data-name="Capa 1-2">
      <g>
        <g>
          <g>
            <path class="cls-3" d="M313.2,123.68c0-47.24,37.7-83.36,85.04-83.36,30.76,0,54.9,20.5,58.84,48.1.73,5.09-3.27,9.62-8.4,9.62h-21.28c-3.61,0-6.82-2.29-8-5.7-3.83-11.09-13.09-17.97-26-17.97-23.83,0-42.57,22.53-42.57,46.48,0,17.34,11.15,28.99,28.69,28.99,14.76,0,27.35-8.24,34.56-21.35,1.47-2.67,4.32-4.28,7.36-4.28h19.42c6.12,0,10.27,6.3,7.76,11.88-14.17,31.46-41.79,47.86-74.47,47.86-36.32,0-60.95-26.13-60.95-60.27Z"/>
            <path class="cls-3" d="M588.32,85.12l-18.5,92.51c-.34,1.71-1.85,2.95-3.59,2.95h-19.01c-1.72,0-3.21-1.2-3.58-2.88l-1.14-5.23c-10.01,7.28-22.07,11.49-34.82,11.49-26.66,0-46.52-18.73-46.52-47.22,0-37.69,29.57-65.13,63.75-65.13,13.01,0,24.35,4.93,32.3,13.6l3.95-6.27c1.55-2.46,4.26-3.96,7.17-3.96h11.7c5.35,0,9.36,4.89,8.31,10.14h-.02ZM545.72,122.53c0-11.65-8.12-19.56-20.36-19.56-15.51,0-28.61,13.76-28.61,29.93,0,11.72,7.86,19.49,20.04,19.49,15.58,0,28.94-13.94,28.94-29.86h-.01Z"/>
            <path class="cls-3" d="M677.89,84.45l-3.09,15.52c-.78,3.91-4.21,6.73-8.2,6.73h-6.91c-13,0-19.59,5.32-22.59,18.18l-10.58,52.75c-.34,1.71-1.85,2.94-3.59,2.94h-27.53c-2.31,0-4.05-2.12-3.59-4.38l19.43-97.15c.47-2.36,2.55-4.06,4.96-4.06h15.17c2.27,0,4.27,1.52,4.87,3.71l1.98,7.21c9.07-8.03,19.22-11.45,31.47-11.45h0c5.28,0,9.23,4.82,8.2,10h0Z"/>
            <path class="cls-3" d="M694.58,85.18h18.96c4.96,0,8.68,4.54,7.71,9.4l-15.93,79.67c-.73,3.68-3.96,6.32-7.71,6.32h-18.97c-4.96,0-8.68-4.54-7.71-9.4l15.93-79.67c.74-3.68,3.96-6.32,7.71-6.32h0Z"/>
            <path class="cls-3" d="M853.16,118.17c0,36.29-28.87,65.78-64.88,65.78-12.81,0-23.41-4.68-30.83-12.71l-3.65,5.71c-1.45,2.26-3.94,3.63-6.62,3.63h-11.96c-4.96,0-8.68-4.54-7.71-9.4l25.6-128c.74-3.68,3.96-6.32,7.71-6.32h18.65c4.96,0,8.69,4.54,7.71,9.41l-6.48,32.26c8.05-4.35,17.05-6.84,26.49-6.84,26.73,0,45.97,18.59,45.97,46.5v-.02ZM817.57,122.47c0-11.52-8.25-19.43-20.43-19.43-15.52,0-28.67,13.49-28.67,29.92,0,11.58,8.19,19.43,20.36,19.43,15.46,0,28.74-13.76,28.74-29.92h0Z"/>
            <path class="cls-3" d="M975.26,118.1c.08,4.08-.31,7.77-1.02,11.42-.77,3.95-4.28,6.78-8.31,6.78h-72.33c.08,12.59,7.01,18.91,19.36,18.91,7.74,0,14.58-2.98,19.33-8.06,1.46-1.56,3.52-2.4,5.66-2.4h18.22c6.44,0,10.13,7.31,6.34,12.52-12.36,17.03-31.98,26.68-54.16,26.68-28.36,0-47.62-21.05-47.62-47.82,0-36.4,27.23-64.59,65.6-64.59,29.51,0,48.95,20.19,48.95,46.56h-.02ZM898.05,116.16h44.38c-1.41-10.88-8.25-16.68-19.53-16.68s-20.1,7.01-24.85,16.68Z"/>
            <circle class="cls-3" cx="708.94" cy="64.78" r="16"/>
          </g>
          <g>
            <path class="cls-3" d="M854.29,244.63l-2.53,12.54h-34.2l10.89-54.45h14.59l-8.41,41.92h19.66Z"/>
            <path class="cls-3" d="M915.37,202.71l-10.89,54.45h-11.97l-15.79-30.7-6.13,30.7h-14.19l10.89-54.45h12.48l15.37,30.12,6.04-30.12h14.19Z"/>
            <path class="cls-3" d="M931.59,233.48c0,6.92,4.27,11.45,11.67,11.45s11.77-3.02,14.12-7.57h-14.11l1.97-9.18h29.63c-2.8,19.43-14.93,30.32-33.31,30.32-14.61,0-24.75-10.16-24.75-23.93,0-18.47,14.61-33.21,33.7-33.21,14.11,0,24.86,9.88,24.75,21.42h-15.07c-1.15-4.8-5.59-7.85-11.41-7.85-10.29,0-17.19,8.73-17.19,18.55h0Z"/>
          </g>
        </g>
        <path class="cls-1" d="M137.66,195.53c-8.06-1.68-16.17-2.53-24.1-2.53-15.8,0-30.72,3.27-44.35,9.73-.01,0-.02,0-.03,0,8.78,17.22,22.03,35.28,40.84,54.08,0,0,32.64-23.44,41.29-58.44l-13.65-2.85ZM131.59,119.31c-6.43-24.67-8.56-70.71,39.9-119.31,0,0-128.88,62.38-115.55,161.7,19.29-12.36,41.99-18.87,65.93-18.87,6.9,0,13.94.55,20.96,1.64-.37-.63-.75-1.26-1.14-1.9-4.44-7.25-7.96-15.04-10.1-23.26h0ZM180.62,201.57c-2.73,0-5.42-.09-7.99-.25-.27-.02-.54-.03-.81-.06-3.96,17.95-15.82,37.51-42.68,55.56,0,0,54.35-4.88,81.94-58.93-9.83,2.44-20.04,3.68-30.46,3.68ZM199.45,82.08c-14.15-17.17-27.01-42.4-18.4-72.52,0,0-45.14,41.8-30.72,106.27,2.26,10.05,6.27,19.6,11.36,28.53.66,1.16,1.36,2.44,2.08,3.84l15.59,2.81c6.92,1.25,13.91,1.88,20.78,1.88s14.1-.68,20.82-2.01c.89-.18,1.78-.36,2.67-.56.46-24.51-8.12-48.77-24.18-68.24h0Z"/>
        <g>
          <path class="cls-2" d="M279.02,132.72c-13.84,26.24-36.14,44.63-62.65,53.26-11.27,3.68-23.29,5.59-35.75,5.59-2.44,0-4.89-.07-7.36-.23-6.19-.37-12.47-1.21-18.8-2.52l-1.42-.3-13.33-2.78c-8.79-1.83-17.55-2.74-26.15-2.74-17.14,0-33.67,3.61-48.63,10.69-1.56.74-3.11,1.52-4.65,2.34L0,228.23l43.06-43.35c4.61-4.64,9.57-8.81,14.83-12.47,18.42-12.82,40.52-19.58,63.98-19.58,7.4,0,14.95.68,22.55,2.05l3.84.69,20.27,3.65,9.06,1.63c7.59,1.37,15.13,2.04,22.55,2.04s15.37-.73,22.76-2.2c15.23-3,29.51-9.05,42.1-17.99l14.02-9.98Z"/>
          <path class="cls-2" d="M279.02,132.72c-13.84,26.24-36.14,44.63-62.65,53.26-11.27,3.68-23.29,5.59-35.75,5.59-2.44,0-4.89-.07-7.36-.23-6.19-.37-12.47-1.21-18.8-2.52l-1.42-.3-13.33-2.78c-8.79-1.83-17.55-2.74-26.15-2.74-17.14,0-33.67,3.61-48.63,10.69-1.56.74-3.11,1.52-4.65,2.34L0,228.23l43.06-43.35c4.61-4.64,9.57-8.81,14.83-12.47,18.42-12.82,40.52-19.58,63.98-19.58,7.4,0,14.95.68,22.55,2.05l3.84.69,20.27,3.65,9.06,1.63c7.59,1.37,15.13,2.04,22.55,2.04s15.37-.73,22.76-2.2c15.23-3,29.51-9.05,42.1-17.99l14.02-9.98Z"/>
        </g>
      </g>
    </g>
  </g>
</svg>