<?xml version="1.0" encoding="UTF-8"?>
<svg xmlns="http://www.w3.org/2000/svg" viewBox="0 0 1120 360" width="1120" height="360">
  <defs>
    <style>
      @import url('https://fonts.googleapis.com/css2?family=Courgette&amp;display=swap');
    </style>
  </defs>
  <g transform="translate(0,260) scale(0.1,-0.1)" fill="#fff" stroke="none">
    <path d="M7568 2208 c-10 -7 -21 -24 -26 -38 -5 -14 -67 -316 -138 -672 -116
-584 -127 -649 -115 -672 19 -34 69 -49 153 -44 64 3 73 7 98 35 15 17 29 36
32 44 3 9 19 2 52 -24 142 -108 355 -114 556 -16 67 33 101 59 165 123 121
123 178 247 191 421 19 245 -119 447 -338 495 -87 20 -239 9 -315 -22 -36 -15
-63 -21 -63 -15 0 6 14 84 32 174 l32 162 -20 28 c-21 28 -22 28 -150 31 -93
2 -134 -1 -146 -10z m497 -667 c77 -36 115 -95 115 -180 0 -148 -135 -291
-275 -291 -77 0 -119 16 -158 60 -59 65 -70 153 -30 248 58 140 227 219 348
163z"/>
    <path d="M3856 2179 c-39 -5 -106 -22 -151 -37 -218 -75 -380 -217 -479 -417
-67 -135 -80 -194 -80 -365 0 -126 3 -154 23 -210 65 -185 206 -319 391 -374
133 -40 346 -28 496 29 176 66 330 207 418 382 39 78 33 123 -21 151 -23 13
-239 17 -268 6 -9 -4 -33 -32 -55 -63 -50 -75 -99 -117 -179 -154 -55 -26 -78
-31 -146 -31 -68 -1 -88 3 -137 27 -102 50 -148 132 -148 263 0 176 103 345
255 419 96 47 191 52 287 16 45 -17 104 -78 127 -131 33 -76 44 -80 201 -80
123 0 138 2 158 20 30 29 36 61 22 122 -52 216 -232 383 -457 423 -87 16 -155
17 -257 4z"/>
    <path d="M7012 2080 c-54 -33 -74 -75 -69 -149 3 -60 6 -66 44 -102 48 -45 97
-57 156 -39 75 22 127 108 112 183 -9 41 -48 93 -85 112 -42 21 -118 19 -158
-5z"/>
    <path d="M9183 1870 c-302 -31 -525 -254 -564 -561 -28 -226 71 -424 255 -510
83 -39 163 -53 266 -45 162 12 293 65 403 166 105 97 126 143 86 194 -20 26
-22 26 -149 26 -128 0 -130 0 -162 -29 -50 -43 -95 -63 -158 -68 -119 -11
-202 47 -212 147 l-3 35 382 5 c426 6 406 2 423 76 13 52 12 139 0 204 -15 81
-53 154 -111 215 -111 118 -259 165 -456 145z m158 -301 c39 -19 73 -64 84
-111 l7 -28 -221 0 -222 0 11 21 c7 11 27 38 46 59 76 83 198 108 295 59z"/>
    <path d="M5091 1854 c-226 -61 -405 -250 -457 -482 -22 -100 -15 -255 15 -333
103 -269 421 -367 707 -219 75 39 84 40 84 9 0 -39 26 -49 133 -49 56 0 108 4
116 9 14 9 201 916 201 974 0 16 -10 38 -25 52 -22 23 -32 25 -115 25 -87 0
-93 -2 -119 -27 -15 -16 -32 -37 -38 -47 -10 -19 -12 -19 -34 -3 -72 52 -119
79 -163 92 -64 19 -233 18 -305 -1z m240 -306 c112 -37 157 -151 113 -281 -21
-62 -96 -144 -159 -173 -58 -27 -147 -32 -198 -10 -78 32 -125 132 -107 228
33 171 204 286 351 236z"/>
    <path d="M6635 1843 c-61 -8 -132 -33 -187 -67 -32 -19 -59 -31 -62 -28 -2 4
-6 20 -10 37 -4 16 -12 36 -18 42 -15 18 -212 18 -226 1 -5 -7 -54 -231 -107
-498 -53 -267 -98 -492 -101 -501 -3 -9 3 -24 11 -33 14 -13 42 -16 165 -16
144 0 150 1 163 23 8 12 35 130 61 262 57 289 70 340 102 383 39 50 77 65 187
72 126 8 130 12 158 152 21 101 21 109 5 133 -26 40 -59 49 -141 38z"/>
    <path d="M6902 1720 c-26 -25 -15 20 -112 -464 -69 -344 -78 -402 -67 -425 19
-40 52 -51 160 -51 106 0 161 15 171 47 12 37 166 818 166 841 0 12 -11 34
-25 47 -23 24 -30 25 -148 25 -110 0 -126 -2 -145 -20z"/>
    <path d="M2685 1189 c-161 -114 -274 -164 -449 -200 -172 -36 -301 -31 -616
26 -263 47 -266 47 -435 42 -191 -6 -291 -27 -432 -92 -149 -69 -224 -130
-493 -399 -140 -141 -252 -256 -248 -256 3 0 125 64 270 141 448 242 530 275
733 299 131 16 250 7 460 -35 206 -41 337 -51 465 -36 145 18 244 47 365 106
203 99 355 239 474 438 13 20 19 37 14 37 -4 -1 -53 -33 -108 -71z"/>
    <path d="M9420 565 c-104 -29 -191 -109 -225 -206 -19 -52 -19 -169 -2 -212
40 -94 115 -137 239 -137 70 0 92 4 143 28 91 44 149 119 173 230 l10 42 -149
0 -148 0 -10 -37 c-6 -21 -11 -41 -11 -45 0 -5 29 -8 65 -8 36 0 65 -3 65 -6
0 -20 -25 -44 -60 -58 -50 -20 -81 -20 -126 -1 -97 40 -73 210 39 266 61 32
122 22 163 -25 30 -35 33 -36 103 -36 67 0 71 1 71 23 -1 62 -65 143 -138 174
-51 21 -140 25 -202 8z"/>
    <path d="M8286 543 c-3 -10 -26 -124 -51 -253 -25 -129 -48 -243 -51 -252 -5
-17 8 -18 169 -18 l175 0 7 46 c3 26 9 53 12 60 4 11 -14 14 -91 14 -86 0 -96
2 -96 18 0 10 17 105 39 210 l38 192 -73 0 c-61 0 -73 -3 -78 -17z"/>
    <path d="M8676 543 c-5 -19 -106 -511 -106 -519 0 -3 32 -4 72 -2 l72 3 18 90
c36 183 40 197 48 189 4 -5 40 -71 80 -147 l72 -138 61 3 61 3 53 260 c28 143
52 264 53 268 0 4 -32 7 -72 5 l-72 -3 -18 -90 c-10 -49 -23 -115 -29 -145
l-11 -55 -74 148 -74 147 -64 0 c-53 0 -66 -3 -70 -17z"/>
  </g>
  <g transform="translate(0,260) scale(0.1,-0.1)" fill="rgba(255,255,255,0.7)" stroke="none">
    <path d="M1626 2540 c-224 -125 -432 -284 -611 -464 -228 -229 -359 -442 -427
-695 -15 -56 -22 -119 -25 -238 -3 -90 -2 -163 3 -163 4 0 47 20 95 45 193
100 386 141 621 133 82 -3 147 -3 146 1 -97 184 -127 285 -135 456 -14 312
111 625 362 902 36 40 65 73 63 73 -2 0 -43 -22 -92 -50z"/>
    <path d="M1760 2434 c-99 -121 -173 -253 -220 -392 -95 -284 -74 -586 60 -851
22 -44 47 -82 57 -85 43 -12 205 -36 289 -42 53 -4 132 -2 192 6 l102 12 0 72
c-1 201 -86 422 -240 621 -88 114 -134 196 -170 304 -39 116 -49 242 -28 344
8 37 12 67 9 67 -3 -1 -26 -26 -51 -56z"/>
    <path d="M972 649 c-63 -10 -234 -61 -261 -78 -11 -7 -8 -20 19 -68 74 -131
181 -274 312 -417 l64 -69 69 60 c136 117 266 298 320 448 15 41 26 78 23 80
-2 3 -49 14 -104 26 -114 24 -342 33 -442 18z"/>
    <path d="M2020 594 c-36 -7 -118 -14 -182 -15 -102 -1 -118 -4 -118 -18 -1
-34 -59 -162 -104 -230 -55 -82 -167 -197 -254 -261 -34 -24 -60 -45 -59 -47
2 -1 32 4 67 12 300 63 559 251 719 523 35 59 37 58 -69 36z"/>
  </g>
  <g transform="translate(711,348)" fill="rgba(255,255,255,0.9)">
    <path d="M20.65-46.67L20.65-46.67Q22.63-51.55 27.69-51.86L27.69-51.86Q30.50-51.86 32.52-49.75L32.52-49.75Q34.45-47.72 34.45-45.44Q34.45-43.15 33.82-41.86Q33.18-40.56 32.21-39.77L32.21-39.77Q30.50-38.36 28.59-38.36Q26.67-38.36 25.33-38.63Q23.99-38.89 22.85-39.46L22.85-39.46Q20.08-40.87 20.08-43.51L20.08-43.51Q20.08-45.22 20.65-46.67ZM14.72-25.09L14.72-25.09Q17.09-29.09 19.34-31.33Q21.58-33.57 22.63-33.57Q23.69-33.57 24.08-32.98Q24.48-32.39 24.48-31.53Q24.48-30.67 23.84-29.07Q23.20-27.47 21.20-21.80Q19.20-16.13 17.23-8.94Q15.25-1.76 14.15 3.60L14.15 3.60Q12.70 10.68 12.00 17.80L12.00 17.80Q11.78 20.35 9.76 20.35L9.76 20.35Q6.64 20.35 4.48 17.18L4.48 17.18Q2.46 14.28 2.46 11.07L2.46 11.07Q2.46 4.48 5.91-5.78Q9.36-16.04 14.72-25.09ZM41.88-18.46L41.88-18.46L41.92-19.73Q42.41-32.87 48.56-44.56L48.56-44.56Q54.23-55.24 62.84-61.83L62.84-61.83Q71.37-68.33 79.45-68.33L79.45-68.33Q85.61-68.33 89.17-64.07L89.17-64.07Q92.20-60.38 92.20-55.02L92.20-55.02Q92.20-48.60 87.50-42.36L87.50-42.36Q84.77-38.76 81.69-37.18L81.69-37.18Q80.24-36.39 78.99-36.39Q77.74-36.39 76.68-36.91Q75.63-37.44 74.84-38.23L74.84-38.23Q73.21-39.95 73.21-41.31Q73.21-42.67 73.92-43.20L73.92-43.20Q81.12-48.38 83.72-53.88L83.72-53.88Q84.73-55.99 84.73-58.01L84.73-58.01Q84.73-62.27 80.68-62.27L80.68-62.27Q74.36-62.27 67.63-55.37L67.63-55.37Q61.35-49.00 57.08-39.38L57.08-39.38Q52.65-29.49 52.38-21.23L52.38-21.23L52.34-19.56Q52.34-9.67 56.51-6.59L56.51-6.59Q58.01-5.49 60.10-5.49Q62.18-5.49 64.03-6.02Q65.87-6.55 67.72-7.47L67.72-7.47Q70.71-9.01 75.37-12.79L75.37-12.79Q76.77-13.89 77.70-12.48L77.70-12.48Q78.49-11.34 78.49-9.84L78.49-9.84Q78.49-7.34 77.81-6.44Q77.12-5.54 75.48-4.31Q73.83-3.08 71.46-2.02L71.46-2.02Q65.92 0.44 60.60 0.44Q55.28 0.44 52.03-0.86Q48.78-2.15 46.54-4.57L46.54-4.57Q41.88-9.67 41.88-18.46ZM92.81-2.99Q90.97-4.75 89.91-7.45Q88.86-10.15 88.81-13.84Q88.77-17.53 89.71-21.31Q90.66-25.09 92.40-28.61Q94.13-32.12 96.57-35.20Q99.01-38.28 101.95-40.56L101.95-40.56Q108.37-45.48 115.27-45.48L115.27-45.48Q124.32-45.48 127.53-37.53L127.53-37.53Q129.81-31.77 127.79-23.60L127.79-23.60Q125.95-16.08 121.03-9.80L121.03-9.80Q116.15-3.52 109.51-0.88L109.51-0.88Q106.17 0.44 102.94 0.44Q99.71 0.44 97.19-0.40Q94.66-1.23 92.81-2.99ZM101.21-24.30Q99.89-21.05 99.12-17.62Q98.35-14.19 98.39-11.14Q98.44-8.09 99.34-6.35Q100.24-4.61 102.26-4.61Q104.28-4.61 106.24-6.00Q108.19-7.38 110.04-9.67Q111.88-11.95 113.51-14.94Q115.14-17.93 116.37-21.18L116.37-21.18Q119.05-28.26 118.96-33.75L118.96-33.75Q118.96-38.58 116.98-39.90L116.98-39.90Q116.19-40.43 114.76-40.43Q113.33-40.43 111.49-39.13Q109.64-37.84 107.80-35.64Q105.95-33.44 104.24-30.50Q102.52-27.55 101.21-24.30ZM166.73-37.18L166.73-37.18Q165.37-37.18 162.86-34.56Q160.36-31.95 158.51-29.79L158.51-29.79L154.78-25.31L147.57-16.13Q145.02-11.29 143.57-8.09L143.57-8.09L141.20-2.99Q140.27-1.10 139.59-0.33Q138.91 0.44 137.75 0.44Q136.58 0.44 135.51 0.02Q134.43-0.40 133.64-1.05L133.64-1.05Q131.97-2.46 131.97-4.13L131.97-4.13Q131.97-4.79 132.93-6.72L132.93-6.72L134.60-10.28Q135.40-11.87 136.45-14.33L136.45-14.33L138.91-20.35Q144.10-33.31 144.10-37.09L144.10-37.09Q144.10-39.11 142.78-40.08L142.78-40.08L141.90-40.69Q141.46-41.00 141.46-41.77Q141.46-42.54 142.05-43.24Q142.65-43.95 143.61-44.47L143.61-44.47Q145.59-45.48 147.59-45.48Q149.59-45.48 150.69-45.04Q151.79-44.60 152.53-43.86L152.53-43.86Q154.16-42.32 154.16-40.65Q154.16-38.98 153.74-37.29Q153.33-35.60 152.69-33.86Q152.05-32.12 151.35-30.45Q150.64-28.78 150.07-27.55L150.07-27.55L149.19-25.66Q148.84-24.96 149.02-25.22L149.02-25.22Q153.90-31.99 155.43-33.93L155.43-33.93L158.51-37.62Q161.89-41.57 163.83-42.85L163.83-42.85Q167.74-45.48 169.98-45.48Q172.22-45.48 173.76-44.91Q175.30-44.34 176.44-43.29L176.44-43.29Q178.86-41.04 178.86-37.57Q178.86-34.10 177.28-30.32Q175.69-26.54 174.53-24.19Q173.36-21.84 172.31-19.42L172.31-19.42Q169.01-12.08 169.01-8.75L169.01-8.75Q169.01-7.25 171.39-7.25L171.39-7.25Q173.23-7.25 174.75-8.04Q176.26-8.83 176.70-8.83L176.70-8.83Q177.63-8.83 177.63-7.91L177.63-7.91Q177.63-4.00 173.63-1.36L173.63-1.36Q170.95 0.44 168.71 0.44Q166.46 0.44 164.99-0.04Q163.52-0.53 162.38-1.58L162.38-1.58Q159.79-3.91 159.79-8.09L159.79-8.09Q159.79-13.18 162.99-20.83L162.99-20.83Q165.32-26.06 166.29-27.99L166.29-27.99L167.78-31.11Q169.15-33.93 169.15-35.55Q169.15-37.18 166.73-37.18ZM185.71-15.38L185.71-15.38Q185.89-19.20 186.99-22.70Q188.09-26.19 189.93-29.47Q191.78-32.74 194.26-35.66Q196.74-38.58 199.64-40.78L199.64-40.78Q205.93-45.48 212.34-45.48L212.34-45.48Q219.86-45.48 222.36-39.29L222.36-39.29Q223.24-37.18 223.20-34.30Q223.15-31.42 222.10-28.98Q221.04-26.54 219.18-24.54Q217.31-22.54 214.74-20.96Q212.17-19.38 209.14-18.28L209.14-18.28Q202.90-16.08 195.78-16.00L195.78-16.00Q195.60-15.38 195.56-14.15Q195.51-12.92 195.82-11.40Q196.13-9.89 196.88-8.70L196.88-8.70Q198.46-6.06 201.45-6.06L201.45-6.06Q206.54-6.06 211.38-9.05L211.38-9.05Q213.09-10.06 214.17-11.14Q215.24-12.22 216.04-12.22Q216.83-12.22 217.42-11.27Q218.01-10.33 218.01-9.14L218.01-9.14Q218.01-6.81 216.69-5.10L216.69-5.10Q211.16 0.44 200.21 0.44L200.21 0.44Q193.75 0.44 189.84-3.43L189.84-3.43Q185.45-7.82 185.71-15.38ZM211.38-39.64L211.38-39.64Q206.76-39.64 202.50-33.31L202.50-33.31Q198.90-27.86 196.70-20.39L196.70-20.39Q204.04-21.14 209.44-26.19L209.44-26.19Q214.41-30.94 214.41-35.29Q214.41-39.64 211.38-39.64ZM227.64-15.16L227.64-15.16Q227.72-18.98 228.85-22.79Q229.97-26.59 231.83-29.97Q233.70-33.35 236.27-36.21Q238.84-39.07 241.88-41.13L241.88-41.13Q248.20-45.48 255.19-45.48L255.19-45.48Q262.40-45.48 264.99-39.73L264.99-39.73Q265.91-37.66 265.85-35.05Q265.78-32.43 264.99-30.26Q264.20-28.08 263.01-26.37L263.01-26.37Q260.33-22.50 257.61-22.50L257.61-22.50Q254.58-22.50 253.13-24.17L253.13-24.17Q251.85-25.62 252.33-27.55L252.33-27.55Q252.47-28.13 253.13-28.59Q253.78-29.05 254.79-30.06L254.79-30.06Q257.65-33.05 257.78-37.05L257.78-37.05Q257.87-39.77 254.44-39.77L254.44-39.77Q250.75-39.77 246.71-35.64L246.71-35.64Q240.82-29.62 238.40-20.21L238.40-20.21Q236.29-12.04 239.19-8.26L239.19-8.26Q240.91-6.06 243.85-6.06L243.85-6.06Q248.82-6.06 253.43-9.58L253.43-9.58Q254.84-10.68 255.72-11.82Q256.60-12.96 257.34-12.96Q258.09-12.96 258.60-12.24Q259.10-11.51 259.10-10.37L259.10-10.37Q259.10-7.78 256.77-5.27L256.77-5.27Q250.80 0.44 242.40 0.44L242.40 0.44Q235.24 0.44 231.33-3.65L231.33-3.65Q227.46-7.69 227.64-15.16ZM293.20-11.51L293.20-11.51Q294.48-11.51 294.48-9.80L294.48-9.80Q294.48-8.35 293.60-6.99L293.60-6.99Q292.41-4.44 288.85-2.15L288.85-2.15Q284.81 0.44 280.72 0.44L280.72 0.44Q273.65 0.44 271.76-5.89L271.76-5.89Q269.52-13.40 278.48-37.75L278.48-37.75Q273.43-38.19 272.99-39.51L272.99-39.51Q272.86-39.90 272.86-40.36Q272.86-40.83 273.27-41.44Q273.69-42.06 274.35-42.63L274.35-42.63Q275.89-43.90 277.47-43.90L277.47-43.90L280.94-43.90Q285.69-55.02 287.71-56.56L287.71-56.56Q288.68-57.26 289.86-57.26Q291.05-57.26 291.84-56.95Q292.63-56.65 293.25-56.07L293.25-56.07Q294.65-54.76 294.65-53.13L294.65-53.13Q294.65-52.25 294.13-51.11L294.13-51.11L290.87-44.03L291.93-44.03Q294.65-44.03 296.32-44.08L296.32-44.08Q296.32-44.08 298.83-44.12L298.83-44.12Q299.66-44.17 300.92-44.17Q302.17-44.17 302.17-43.24L302.17-43.24Q302.17-37.44 288.46-37.44L288.46-37.44L288.11-37.44L285.12-29.71Q280.06-16.00 280.06-10.50L280.06-10.50Q280.06-8.96 280.77-8.11Q281.47-7.25 283.40-7.25Q285.34-7.25 286.92-7.91Q288.50-8.57 289.69-9.38Q290.87-10.20 291.73-10.85Q292.59-11.51 293.20-11.51ZM335.83-11.69L335.83-11.69Q335.83-7.65 338.69-7.65L338.69-7.65Q340.66-7.65 341.96-8.26Q343.26-8.88 343.70-8.88L343.70-8.88Q344.62-8.88 344.62-7.91L344.62-7.91Q344.62-4.13 340.66-1.41L340.66-1.41Q336.49 1.45 332.14 0L332.14 0Q329.28-1.01 327.92-4.35L327.92-4.35Q327.26-6.06 327.26-7.47L327.26-7.47Q327.26-9.76 327.70-12.30L327.70-12.30Q323.61-3.96 317.55-0.79L317.55-0.79Q315.13 0.44 312.41 0.44Q309.68 0.44 307.68-0.68Q305.68-1.80 304.28-3.78L304.28-3.78Q301.42-7.91 301.68-14.15L301.68-14.15Q301.95-21.97 306.30-29.49L306.30-29.49Q310.30-36.52 316.41-40.96L316.41-40.96Q322.51-45.48 327.83-45.48Q333.15-45.48 336.40-40.61L336.40-40.61Q339.43-45.48 341.76-45.48L341.76-45.48Q344.27-45.48 345.54-44.56L345.54-44.56Q347.96-42.80 347.26-41.48L347.26-41.48Q336.23-18.90 335.92-13.36L335.92-13.36Q335.83-12.57 335.83-11.69ZM311.44-11.51L311.44-11.51Q311.44-6.24 314.82-6.24L314.82-6.24Q317.42-6.24 321.20-10.63L321.20-10.63Q326.73-17.09 331.00-28.04L331.00-28.04Q332.36-31.46 333.28-34.89L333.28-34.89Q333.11-37.88 330.78-39.29L330.78-39.29Q329.99-39.77 328.43-39.77Q326.87-39.77 324.78-38.63Q322.69-37.49 320.73-35.51Q318.78-33.53 317.09-30.83Q315.40-28.13 314.12-24.96L314.12-24.96Q311.44-18.19 311.44-11.51ZM364.31-16.96L364.31-16.96Q362.15-16.96 362.15-23.07L362.15-23.07Q362.15-31.51 366.59-44.74L366.59-44.74Q370.55-56.56 375.56-63.46L375.56-63.46Q378.28-67.19 380.96-67.94L380.96-67.94Q382.37-68.29 383.58-68.29Q384.79-68.29 385.71-68.12Q386.63-67.94 387.33-67.59L387.33-67.59Q388.87-66.88 388.87-65.79Q388.87-64.69 387.99-63.46Q387.11-62.23 385.18-59.24Q383.25-56.25 380.65-51.42L380.65-51.42Q374.41-39.81 368.48-23.99L368.48-23.99Q367.87-22.41 367.45-21.12Q367.03-19.82 366.59-18.90L366.59-18.90Q365.67-16.96 364.31-16.96ZM356.99-1.49Q356.00-2.46 355.43-3.71Q354.86-4.97 354.86-6.61Q354.86-8.26 355.50-9.56Q356.13-10.85 357.10-11.65L357.10-11.65Q358.81-13.05 360.73-13.05Q362.64-13.05 363.98-12.79Q365.32-12.52 366.46-11.95L366.46-11.95Q369.23-10.55 369.23-7.91L369.23-7.91Q369.23-4.61 367.08-2.15L367.08-2.15Q365.05 0.13 362.88 0.35Q360.70 0.57 359.34 0.02Q357.98-0.53 356.99-1.49Z"/>
  </g>
</svg>